<svg xmlns="http://www.w3.org/2000/svg" xmlns:xlink="http://www.w3.org/1999/xlink" version="1.1" width="1000" height="1000" viewBox="0 0 1000 1000" xml:space="preserve">
<desc>Created with Fabric.js 3.5.0</desc>
<defs>
</defs>
<rect x="0" y="0" width="100%" height="100%" fill="rgba(255,255,255,0)"/>
<g transform="matrix(10.6491 10.6491 -10.6491 10.6491 500 499.9979)" id="917326">
<path style="stroke: none; stroke-width: 1; stroke-dasharray: none; stroke-linecap: butt; stroke-dashoffset: 0; stroke-linejoin: miter; stroke-miterlimit: 4; is-custom-font: none; font-file-url: none; fill: rgb(0,0,0); fill-rule: nonzero; opacity: 1;" vector-effect="non-scaling-stroke" transform=" translate(-30.182, -30.182)" d="M 54.454 23.18 l -18.609 -0.002 L 35.844 5.91 C 35.845 2.646 33.198 0 29.934 0 c -3.263 0 -5.909 2.646 -5.909 5.91 v 17.269 L 5.91 23.178 C 2.646 23.179 0 25.825 0 29.088 c 0.002 3.264 2.646 5.909 5.91 5.909 h 18.115 v 19.457 c 0 3.267 2.646 5.91 5.91 5.91 c 3.264 0 5.909 -2.646 5.91 -5.908 V 34.997 h 18.611 c 3.262 0 5.908 -2.645 5.908 -5.907 C 60.367 25.824 57.718 23.178 54.454 23.18 z" stroke-linecap="round"/>
</g>
</svg>